STARTFONT 2.1
COMMENT  
COMMENT  WARNING:  This bdf file was generated from an X server using
COMMENT  xbdfdump.  The resulting font is subject to the same copyright,
COMMENT  license, and trademark restrictions as the original font.  The
COMMENT  author and distributors of xbdfdump disclaim all liability for
COMMENT  misuse of the program or its output.
COMMENT  
FONT -phaisarn-angsana-bold-r-normal--10-100-75-75-p-75-tis620-0
SIZE 10 75 75
FONTBOUNDINGBOX 23 29 -7 -9
STARTPROPERTIES 26
FOUNDRY "Phaisarn"
FAMILY_NAME "Angsana"
WEIGHT_NAME "bold"
SLANT "r"
SETWIDTH_NAME "normal"
ADD_STYLE_NAME ""
PIXEL_SIZE 10
POINT_SIZE 100
RESOLUTION_X 75
RESOLUTION_Y 75
SPACING "p"
AVERAGE_WIDTH 75
CHARSET_REGISTRY "tis620"
CHARSET_ENCODING "0"
COPYRIGHT "Angsana by Pt-TITech 1997"
RAW_PIXELSIZE 1000
RAW_POINTSIZE "N"
RAW_ASCENT "CIRCUMFLEX_ACCENT"
RAW_DESCENT "RAW_FIGURE_WIDTH"
RAW_AVERAGE_WIDTH 2994
FACE_NAME "Angsana Bold"
WEIGHT 10
X_HEIGHT 6
QUAD_WIDTH 8
FONT_ASCENT 15
FONT_DESCENT 10
ENDPROPERTIES
CHARS 199
STARTCHAR space
ENCODING 32
SWIDTH 288 0
DWIDTH 3 0
BBX 0 0 0 0
BITMAP
ENDCHAR
STARTCHAR exclam
ENCODING 33
SWIDTH 384 0
DWIDTH 4 0
BBX 1 9 1 0
BITMAP
80
80
80
80
80
80
00
80
80
ENDCHAR
STARTCHAR quotedbl
ENCODING 34
SWIDTH 672 0
DWIDTH 7 0
BBX 5 4 1 5
BITMAP
d8
d8
d8
48
ENDCHAR
STARTCHAR numbersign
ENCODING 35
SWIDTH 576 0
DWIDTH 6 0
BBX 5 9 1 0
BITMAP
28
48
48
f8
50
f8
90
90
90
ENDCHAR
STARTCHAR dollar
ENCODING 36
SWIDTH 576 0
DWIDTH 6 0
BBX 6 9 1 0
BITMAP
70
a8
e4
e0
78
38
a8
b8
60
ENDCHAR
STARTCHAR percent
ENCODING 37
SWIDTH 1248 0
DWIDTH 13 0
BBX 11 9 1 0
BITMAP
2100
5100
da00
5200
2480
0940
0b60
1140
1080
ENDCHAR
STARTCHAR ampersand
ENCODING 38
SWIDTH 1056 0
DWIDTH 11 0
BBX 9 9 1 0
BITMAP
1800
2400
2400
3800
3380
da00
ce00
c680
7b00
ENDCHAR
STARTCHAR apostrophe
ENCODING 39
SWIDTH 384 0
DWIDTH 4 0
BBX 2 4 1 5
BITMAP
c0
c0
c0
40
ENDCHAR
STARTCHAR parenleft
ENCODING 40
SWIDTH 384 0
DWIDTH 4 0
BBX 4 12 1 -3
BITMAP
10
20
40
40
c0
c0
c0
c0
40
40
20
10
ENDCHAR
STARTCHAR parenright
ENCODING 41
SWIDTH 384 0
DWIDTH 4 0
BBX 4 12 0 -3
BITMAP
c0
40
20
20
30
30
30
30
20
20
40
c0
ENDCHAR
STARTCHAR asterisk
ENCODING 42
SWIDTH 576 0
DWIDTH 6 0
BBX 5 5 1 4
BITMAP
20
20
f8
30
50
ENDCHAR
STARTCHAR plus
ENCODING 43
SWIDTH 672 0
DWIDTH 7 0
BBX 6 8 1 0
BITMAP
20
20
20
fc
20
20
20
20
ENDCHAR
STARTCHAR comma
ENCODING 44
SWIDTH 288 0
DWIDTH 3 0
BBX 3 4 0 -2
BITMAP
e0
e0
20
c0
ENDCHAR
STARTCHAR minus
ENCODING 45
SWIDTH 384 0
DWIDTH 4 0
BBX 4 1 0 2
BITMAP
f0
ENDCHAR
STARTCHAR period
ENCODING 46
SWIDTH 288 0
DWIDTH 3 0
BBX 2 2 1 0
BITMAP
c0
c0
ENDCHAR
STARTCHAR slash
ENCODING 47
SWIDTH 384 0
DWIDTH 4 0
BBX 3 9 0 0
BITMAP
20
20
20
40
40
40
80
80
80
ENDCHAR
STARTCHAR 0
ENCODING 48
SWIDTH 576 0
DWIDTH 6 0
BBX 6 9 0 0
BITMAP
30
48
cc
cc
cc
cc
cc
48
30
ENDCHAR
STARTCHAR 1
ENCODING 49
SWIDTH 576 0
DWIDTH 6 0
BBX 4 9 1 0
BITMAP
20
e0
60
60
60
60
60
60
f0
ENDCHAR
STARTCHAR 2
ENCODING 50
SWIDTH 576 0
DWIDTH 6 0
BBX 5 9 1 0
BITMAP
60
f0
b0
30
20
40
48
f0
f0
ENDCHAR
STARTCHAR 3
ENCODING 51
SWIDTH 576 0
DWIDTH 6 0
BBX 5 9 1 0
BITMAP
70
98
18
10
38
18
08
c8
f0
ENDCHAR
STARTCHAR 4
ENCODING 52
SWIDTH 576 0
DWIDTH 6 0
BBX 5 9 1 0
BITMAP
10
30
70
70
b0
b0
f8
30
30
ENDCHAR
STARTCHAR 5
ENCODING 53
SWIDTH 576 0
DWIDTH 6 0
BBX 5 9 1 0
BITMAP
78
78
80
e0
f0
18
08
88
f0
ENDCHAR
STARTCHAR 6
ENCODING 54
SWIDTH 576 0
DWIDTH 6 0
BBX 6 9 0 0
BITMAP
18
20
60
f8
cc
cc
cc
68
30
ENDCHAR
STARTCHAR 7
ENCODING 55
SWIDTH 576 0
DWIDTH 6 0
BBX 5 9 1 0
BITMAP
f8
f8
88
10
10
10
20
20
20
ENDCHAR
STARTCHAR 8
ENCODING 56
SWIDTH 576 0
DWIDTH 6 0
BBX 6 9 0 0
BITMAP
38
6c
64
7c
38
7c
cc
6c
38
ENDCHAR
STARTCHAR 9
ENCODING 57
SWIDTH 576 0
DWIDTH 6 0
BBX 6 9 0 0
BITMAP
30
48
cc
cc
cc
7c
18
10
60
ENDCHAR
STARTCHAR colon
ENCODING 58
SWIDTH 384 0
DWIDTH 4 0
BBX 2 6 1 0
BITMAP
c0
c0
00
00
c0
c0
ENDCHAR
STARTCHAR semicolon
ENCODING 59
SWIDTH 384 0
DWIDTH 4 0
BBX 2 8 1 -2
BITMAP
c0
c0
00
00
c0
c0
40
80
ENDCHAR
STARTCHAR less
ENCODING 60
SWIDTH 672 0
DWIDTH 7 0
BBX 6 6 1 1
BITMAP
04
18
e0
e0
18
04
ENDCHAR
STARTCHAR equal
ENCODING 61
SWIDTH 672 0
DWIDTH 7 0
BBX 6 3 1 3
BITMAP
fc
00
fc
ENDCHAR
STARTCHAR greater
ENCODING 62
SWIDTH 672 0
DWIDTH 7 0
BBX 6 6 1 1
BITMAP
80
60
1c
1c
60
80
ENDCHAR
STARTCHAR question
ENCODING 63
SWIDTH 576 0
DWIDTH 6 0
BBX 5 9 1 0
BITMAP
70
90
d8
18
10
20
00
60
20
ENDCHAR
STARTCHAR at
ENCODING 64
SWIDTH 1152 0
DWIDTH 12 0
BBX 11 12 1 -3
BITMAP
0e00
3100
4080
4740
4f40
9a40
b240
b680
9b20
40c0
2100
1e00
ENDCHAR
STARTCHAR A
ENCODING 65
SWIDTH 864 0
DWIDTH 9 0
BBX 9 9 0 0
BITMAP
0800
0800
0c00
1c00
1600
2600
3e00
4300
e780
ENDCHAR
STARTCHAR B
ENCODING 66
SWIDTH 864 0
DWIDTH 9 0
BBX 8 9 0 0
BITMAP
fe
63
63
66
7e
63
63
63
fc
ENDCHAR
STARTCHAR C
ENCODING 67
SWIDTH 864 0
DWIDTH 9 0
BBX 8 9 1 0
BITMAP
1d
62
41
c0
c0
c0
c0
62
1c
ENDCHAR
STARTCHAR D
ENCODING 68
SWIDTH 864 0
DWIDTH 9 0
BBX 9 9 0 0
BITMAP
fc00
6600
6300
6180
6180
6180
6380
6300
fc00
ENDCHAR
STARTCHAR E
ENCODING 69
SWIDTH 864 0
DWIDTH 9 0
BBX 8 9 0 0
BITMAP
fe
61
68
78
68
64
61
63
ff
ENDCHAR
STARTCHAR F
ENCODING 70
SWIDTH 768 0
DWIDTH 8 0
BBX 8 9 1 0
BITMAP
fe
61
64
68
78
68
64
60
f0
ENDCHAR
STARTCHAR G
ENCODING 71
SWIDTH 960 0
DWIDTH 10 0
BBX 9 9 1 0
BITMAP
1c80
6300
4100
c000
c000
c780
c300
6300
1e00
ENDCHAR
STARTCHAR H
ENCODING 72
SWIDTH 960 0
DWIDTH 10 0
BBX 10 9 0 0
BITMAP
f3c0
6180
6180
6180
7f80
6180
6180
6180
f3c0
ENDCHAR
STARTCHAR I
ENCODING 73
SWIDTH 480 0
DWIDTH 5 0
BBX 4 9 0 0
BITMAP
f0
60
60
60
60
60
60
60
f0
ENDCHAR
STARTCHAR J
ENCODING 74
SWIDTH 576 0
DWIDTH 6 0
BBX 6 9 0 0
BITMAP
3c
18
18
18
18
18
d8
d8
60
ENDCHAR
STARTCHAR K
ENCODING 75
SWIDTH 960 0
DWIDTH 10 0
BBX 10 9 0 0
BITMAP
f1c0
3080
3300
3400
3c00
3600
3300
3180
f3c0
ENDCHAR
STARTCHAR L
ENCODING 76
SWIDTH 864 0
DWIDTH 9 0
BBX 9 9 0 0
BITMAP
f000
6000
6000
6000
6000
6000
6080
6100
ff00
ENDCHAR
STARTCHAR M
ENCODING 77
SWIDTH 1152 0
DWIDTH 12 0
BBX 12 9 0 0
BITMAP
f070
70e0
78e0
5960
5d60
4d60
4e60
4460
e4f0
ENDCHAR
STARTCHAR N
ENCODING 78
SWIDTH 864 0
DWIDTH 9 0
BBX 9 9 0 0
BITMAP
e380
7100
5900
5d00
4f00
4700
4300
4300
e100
ENDCHAR
STARTCHAR O
ENCODING 79
SWIDTH 960 0
DWIDTH 10 0
BBX 9 9 1 0
BITMAP
1c00
6300
4100
c180
c180
c180
6100
6300
1c00
ENDCHAR
STARTCHAR P
ENCODING 80
SWIDTH 768 0
DWIDTH 8 0
BBX 7 9 1 0
BITMAP
f8
6c
66
66
78
60
60
60
f0
ENDCHAR
STARTCHAR Q
ENCODING 81
SWIDTH 960 0
DWIDTH 10 0
BBX 9 11 1 -2
BITMAP
1c00
6300
4100
c180
c180
c180
4100
6300
3600
0c00
0780
ENDCHAR
STARTCHAR R
ENCODING 82
SWIDTH 864 0
DWIDTH 9 0
BBX 10 9 0 0
BITMAP
fc00
6700
6300
6600
7c00
6e00
6700
6780
f3c0
ENDCHAR
STARTCHAR S
ENCODING 83
SWIDTH 672 0
DWIDTH 7 0
BBX 6 9 1 0
BITMAP
74
cc
c4
e0
78
3c
84
c4
b8
ENDCHAR
STARTCHAR T
ENCODING 84
SWIDTH 864 0
DWIDTH 9 0
BBX 7 9 1 0
BITMAP
fe
b2
30
30
30
30
30
30
78
ENDCHAR
STARTCHAR U
ENCODING 85
SWIDTH 864 0
DWIDTH 9 0
BBX 9 9 0 0
BITMAP
f380
6100
6100
6100
6100
6100
6100
7200
3c00
ENDCHAR
STARTCHAR V
ENCODING 86
SWIDTH 864 0
DWIDTH 9 0
BBX 9 9 0 0
BITMAP
f380
6100
6100
3200
3200
1c00
1c00
0800
0800
ENDCHAR
STARTCHAR W
ENCODING 87
SWIDTH 1248 0
DWIDTH 13 0
BBX 13 9 0 0
BITMAP
f798
6308
7308
3190
3b90
1ae0
1cc0
08c0
0840
ENDCHAR
STARTCHAR X
ENCODING 88
SWIDTH 864 0
DWIDTH 9 0
BBX 9 9 0 0
BITMAP
f380
6100
3200
3c00
1c00
1e00
2700
4300
e780
ENDCHAR
STARTCHAR Y
ENCODING 89
SWIDTH 864 0
DWIDTH 9 0
BBX 9 9 0 0
BITMAP
f380
7080
3180
3900
1a00
0c00
0c00
0c00
3f00
ENDCHAR
STARTCHAR Z
ENCODING 90
SWIDTH 864 0
DWIDTH 9 0
BBX 9 9 1 0
BITMAP
7f00
4600
8c00
1800
1800
3000
6080
6100
ff00
ENDCHAR
STARTCHAR bracketleft
ENCODING 91
SWIDTH 384 0
DWIDTH 4 0
BBX 3 11 1 -2
BITMAP
e0
80
80
80
80
80
80
80
80
80
e0
ENDCHAR
STARTCHAR backslash
ENCODING 92
SWIDTH 384 0
DWIDTH 4 0
BBX 3 9 0 0
BITMAP
80
80
80
40
40
40
20
20
20
ENDCHAR
STARTCHAR bracketright
ENCODING 93
SWIDTH 384 0
DWIDTH 4 0
BBX 3 11 0 -2
BITMAP
e0
20
20
20
20
20
20
20
20
20
e0
ENDCHAR
STARTCHAR asciicircum
ENCODING 94
SWIDTH 768 0
DWIDTH 8 0
BBX 5 5 1 4
BITMAP
20
70
50
88
88
ENDCHAR
STARTCHAR underscore
ENCODING 95
SWIDTH 576 0
DWIDTH 6 0
BBX 6 1 0 -3
BITMAP
fc
ENDCHAR
STARTCHAR grave
ENCODING 96
SWIDTH 384 0
DWIDTH 4 0
BBX 2 2 1 7
BITMAP
c0
40
ENDCHAR
STARTCHAR a
ENCODING 97
SWIDTH 576 0
DWIDTH 6 0
BBX 5 6 1 0
BITMAP
20
f0
f0
70
f0
f8
ENDCHAR
STARTCHAR b
ENCODING 98
SWIDTH 672 0
DWIDTH 7 0
BBX 7 9 0 0
BITMAP
e0
60
60
7c
66
66
66
64
58
ENDCHAR
STARTCHAR c
ENCODING 99
SWIDTH 576 0
DWIDTH 6 0
BBX 5 6 0 0
BITMAP
30
58
c8
c0
e0
78
ENDCHAR
STARTCHAR d
ENCODING 100
SWIDTH 672 0
DWIDTH 7 0
BBX 6 9 1 0
BITMAP
38
18
18
78
d8
d8
d8
d8
7c
ENDCHAR
STARTCHAR e
ENCODING 101
SWIDTH 576 0
DWIDTH 6 0
BBX 5 6 1 0
BITMAP
20
50
f0
c0
c8
70
ENDCHAR
STARTCHAR f
ENCODING 102
SWIDTH 384 0
DWIDTH 4 0
BBX 5 9 0 0
BITMAP
30
38
60
e0
60
60
60
60
e0
ENDCHAR
STARTCHAR g
ENCODING 103
SWIDTH 576 0
DWIDTH 6 0
BBX 6 9 0 -3
BITMAP
7c
cc
cc
c8
70
fc
7c
84
78
ENDCHAR
STARTCHAR h
ENCODING 104
SWIDTH 672 0
DWIDTH 7 0
BBX 7 9 0 0
BITMAP
e0
60
60
7c
6c
6c
6c
6c
ee
ENDCHAR
STARTCHAR i
ENCODING 105
SWIDTH 384 0
DWIDTH 4 0
BBX 3 9 0 0
BITMAP
60
60
80
60
60
60
60
60
e0
ENDCHAR
STARTCHAR j
ENCODING 106
SWIDTH 384 0
DWIDTH 4 0
BBX 3 12 0 -3
BITMAP
60
60
00
60
60
60
60
60
60
60
e0
40
ENDCHAR
STARTCHAR k
ENCODING 107
SWIDTH 672 0
DWIDTH 7 0
BBX 7 9 0 0
BITMAP
e0
60
60
6e
6c
68
78
6e
ee
ENDCHAR
STARTCHAR l
ENCODING 108
SWIDTH 384 0
DWIDTH 4 0
BBX 3 9 0 0
BITMAP
e0
60
60
60
60
60
60
60
e0
ENDCHAR
STARTCHAR m
ENCODING 109
SWIDTH 1056 0
DWIDTH 11 0
BBX 10 6 0 0
BITMAP
fdc0
66c0
66c0
66c0
66c0
efc0
ENDCHAR
STARTCHAR n
ENCODING 110
SWIDTH 672 0
DWIDTH 7 0
BBX 7 6 0 0
BITMAP
f8
6c
6c
6c
6c
ee
ENDCHAR
STARTCHAR o
ENCODING 111
SWIDTH 576 0
DWIDTH 6 0
BBX 6 6 0 0
BITMAP
30
48
cc
cc
48
30
ENDCHAR
STARTCHAR p
ENCODING 112
SWIDTH 672 0
DWIDTH 7 0
BBX 7 9 0 -3
BITMAP
fc
66
66
66
6c
7c
60
60
e0
ENDCHAR
STARTCHAR q
ENCODING 113
SWIDTH 672 0
DWIDTH 7 0
BBX 7 9 0 -3
BITMAP
34
6c
cc
cc
cc
7c
0c
0c
0e
ENDCHAR
STARTCHAR r
ENCODING 114
SWIDTH 576 0
DWIDTH 6 0
BBX 5 6 0 0
BITMAP
f8
78
60
60
60
e0
ENDCHAR
STARTCHAR s
ENCODING 115
SWIDTH 480 0
DWIDTH 5 0
BBX 4 6 1 0
BITMAP
70
90
e0
70
90
e0
ENDCHAR
STARTCHAR t
ENCODING 116
SWIDTH 384 0
DWIDTH 4 0
BBX 5 8 0 0
BITMAP
20
60
f0
60
60
60
68
30
ENDCHAR
STARTCHAR u
ENCODING 117
SWIDTH 672 0
DWIDTH 7 0
BBX 7 6 0 0
BITMAP
ec
6c
6c
6c
6c
3e
ENDCHAR
STARTCHAR v
ENCODING 118
SWIDTH 576 0
DWIDTH 6 0
BBX 6 6 0 0
BITMAP
ec
64
68
28
30
10
ENDCHAR
STARTCHAR w
ENCODING 119
SWIDTH 864 0
DWIDTH 9 0
BBX 9 6 0 0
BITMAP
ef80
6680
6f00
3b00
3200
2200
ENDCHAR
STARTCHAR x
ENCODING 120
SWIDTH 576 0
DWIDTH 6 0
BBX 6 6 0 0
BITMAP
ec
68
70
38
58
dc
ENDCHAR
STARTCHAR y
ENCODING 121
SWIDTH 576 0
DWIDTH 6 0
BBX 6 9 0 -3
BITMAP
ec
c4
68
68
30
30
10
a0
c0
ENDCHAR
STARTCHAR z
ENCODING 122
SWIDTH 576 0
DWIDTH 6 0
BBX 5 6 0 0
BITMAP
f8
98
30
60
48
f8
ENDCHAR
STARTCHAR braceleft
ENCODING 123
SWIDTH 480 0
DWIDTH 5 0
BBX 4 12 1 -3
BITMAP
30
20
40
20
20
c0
40
20
20
40
20
30
ENDCHAR
STARTCHAR bar
ENCODING 124
SWIDTH 288 0
DWIDTH 3 0
BBX 1 12 1 -3
BITMAP
80
80
80
80
80
80
80
80
80
80
80
80
ENDCHAR
STARTCHAR braceright
ENCODING 125
SWIDTH 480 0
DWIDTH 5 0
BBX 3 12 1 -3
BITMAP
80
40
40
40
40
20
20
40
40
40
40
80
ENDCHAR
STARTCHAR asciitilde
ENCODING 126
SWIDTH 672 0
DWIDTH 7 0
BBX 7 3 0 2
BITMAP
e2
b4
9c
ENDCHAR
STARTCHAR exclamdown
ENCODING 161
SWIDTH 768 0
DWIDTH 8 0
BBX 6 8 1 0
BITMAP
70
88
ec
cc
cc
cc
cc
c8
ENDCHAR
STARTCHAR cent
ENCODING 162
SWIDTH 768 0
DWIDTH 8 0
BBX 6 8 1 0
BITMAP
64
7c
bc
7c
3c
3c
3c
18
ENDCHAR
STARTCHAR sterling
ENCODING 163
SWIDTH 864 0
DWIDTH 9 0
BBX 7 8 1 0
BITMAP
56
7e
9e
be
7e
1e
1e
0c
ENDCHAR
STARTCHAR currency
ENCODING 164
SWIDTH 768 0
DWIDTH 8 0
BBX 6 8 1 0
BITMAP
78
8c
ac
dc
ec
cc
cc
cc
ENDCHAR
STARTCHAR yen
ENCODING 165
SWIDTH 768 0
DWIDTH 8 0
BBX 7 8 1 0
BITMAP
4c
f6
c6
f6
d6
c6
c6
c6
ENDCHAR
STARTCHAR brokenbar
ENCODING 166
SWIDTH 960 0
DWIDTH 10 0
BBX 8 8 1 0
BITMAP
51
fb
9b
db
db
3f
5b
31
ENDCHAR
STARTCHAR section
ENCODING 167
SWIDTH 576 0
DWIDTH 6 0
BBX 5 8 1 0
BITMAP
30
58
38
18
98
58
38
18
ENDCHAR
STARTCHAR diaeresis
ENCODING 168
SWIDTH 768 0
DWIDTH 8 0
BBX 6 8 1 0
BITMAP
70
d8
4c
ac
ec
6c
6c
38
ENDCHAR
STARTCHAR copyright
ENCODING 169
SWIDTH 768 0
DWIDTH 8 0
BBX 7 8 1 0
BITMAP
78
cc
4c
ac
6c
7c
6a
6c
ENDCHAR
STARTCHAR ordfeminine
ENCODING 170
SWIDTH 768 0
DWIDTH 8 0
BBX 6 8 1 0
BITMAP
64
bc
f8
7c
3c
3c
3c
38
ENDCHAR
STARTCHAR guillemotleft
ENCODING 171
SWIDTH 864 0
DWIDTH 9 0
BBX 7 8 1 0
BITMAP
52
7e
bc
be
7e
1e
1e
1c
ENDCHAR
STARTCHAR notsign
ENCODING 172
SWIDTH 960 0
DWIDTH 10 0
BBX 9 8 1 0
BITMAP
7880
8d80
6d80
cd80
cd80
df80
bd80
4c80
ENDCHAR
STARTCHAR hyphen
ENCODING 173
SWIDTH 1056 0
DWIDTH 11 0
BBX 9 12 1 -4
BITMAP
7880
8d80
6d80
cd80
cd80
ed80
dd80
6700
0000
0d80
0900
0600
ENDCHAR
STARTCHAR registered
ENCODING 174
SWIDTH 864 0
DWIDTH 9 0
BBX 7 12 1 -4
BITMAP
38
46
36
66
66
e6
a6
4e
36
5e
26
06
ENDCHAR
STARTCHAR macron
ENCODING 175
SWIDTH 864 0
DWIDTH 9 0
BBX 7 12 1 -4
BITMAP
38
46
36
66
66
e6
a6
76
36
d6
fe
36
ENDCHAR
STARTCHAR degree
ENCODING 176
SWIDTH 768 0
DWIDTH 8 0
BBX 6 12 1 -4
BITMAP
64
78
70
58
a8
68
68
30
78
e8
78
18
ENDCHAR
STARTCHAR plusminus
ENCODING 177
SWIDTH 960 0
DWIDTH 10 0
BBX 9 8 1 0
BITMAP
5300
fb80
9d80
dd80
5d80
1980
1980
1980
ENDCHAR
STARTCHAR twosuperior
ENCODING 178
SWIDTH 1056 0
DWIDTH 11 0
BBX 9 8 1 0
BITMAP
4880
fd80
cd80
fd80
dd80
7d80
ff80
cd80
ENDCHAR
STARTCHAR threesuperior
ENCODING 179
SWIDTH 1056 0
DWIDTH 11 0
BBX 9 8 1 0
BITMAP
7180
8d80
6d80
cd80
cd80
ef00
de80
2d80
ENDCHAR
STARTCHAR acute
ENCODING 180
SWIDTH 768 0
DWIDTH 8 0
BBX 6 8 1 0
BITMAP
78
cc
cc
fc
fc
5c
ec
cc
ENDCHAR
STARTCHAR mu
ENCODING 181
SWIDTH 768 0
DWIDTH 8 0
BBX 7 8 1 0
BITMAP
6c
d6
f6
f6
d6
66
c6
c6
ENDCHAR
STARTCHAR paragraph
ENCODING 182
SWIDTH 768 0
DWIDTH 8 0
BBX 6 8 1 0
BITMAP
70
8c
ec
cc
cc
ec
dc
68
ENDCHAR
STARTCHAR periodcentered
ENCODING 183
SWIDTH 864 0
DWIDTH 9 0
BBX 7 8 1 0
BITMAP
4c
ae
f6
76
76
66
66
66
ENDCHAR
STARTCHAR cedilla
ENCODING 184
SWIDTH 768 0
DWIDTH 8 0
BBX 7 8 1 0
BITMAP
66
d8
f0
6c
6c
6c
6c
f8
ENDCHAR
STARTCHAR onesuperior
ENCODING 185
SWIDTH 864 0
DWIDTH 9 0
BBX 7 8 1 0
BITMAP
42
e6
66
66
66
7c
6a
64
ENDCHAR
STARTCHAR masculine
ENCODING 186
SWIDTH 864 0
DWIDTH 9 0
BBX 7 8 1 0
BITMAP
46
a6
66
66
66
66
66
7c
ENDCHAR
STARTCHAR guillemotright
ENCODING 187
SWIDTH 864 0
DWIDTH 9 0
BBX 7 13 1 0
BITMAP
02
06
06
06
06
46
a6
66
66
66
66
66
7c
ENDCHAR
STARTCHAR onequarter
ENCODING 188
SWIDTH 768 0
DWIDTH 8 0
BBX 6 8 1 0
BITMAP
4c
ac
cc
dc
dc
fc
cc
c8
ENDCHAR
STARTCHAR onehalf
ENCODING 189
SWIDTH 768 0
DWIDTH 8 0
BBX 6 13 1 0
BITMAP
0c
0c
0c
0c
0c
4c
ac
cc
dc
dc
fc
cc
c8
ENDCHAR
STARTCHAR threequarters
ENCODING 190
SWIDTH 960 0
DWIDTH 10 0
BBX 8 8 1 0
BITMAP
4b
af
6f
77
77
77
63
63
ENDCHAR
STARTCHAR questiondown
ENCODING 191
SWIDTH 960 0
DWIDTH 10 0
BBX 8 13 1 0
BITMAP
01
03
03
03
03
4b
af
6f
77
77
77
63
63
ENDCHAR
STARTCHAR Agrave
ENCODING 192
SWIDTH 864 0
DWIDTH 9 0
BBX 7 8 1 0
BITMAP
38
46
76
66
66
66
a6
44
ENDCHAR
STARTCHAR Aacute
ENCODING 193
SWIDTH 864 0
DWIDTH 9 0
BBX 7 8 1 0
BITMAP
42
e6
66
66
66
76
ee
46
ENDCHAR
STARTCHAR Acircumflex
ENCODING 194
SWIDTH 672 0
DWIDTH 7 0
BBX 6 8 1 0
BITMAP
44
ac
cc
cc
cc
cc
cc
78
ENDCHAR
STARTCHAR Atilde
ENCODING 195
SWIDTH 672 0
DWIDTH 7 0
BBX 6 8 1 0
BITMAP
64
f8
e0
18
18
38
48
38
ENDCHAR
STARTCHAR Adiaeresis
ENCODING 196
SWIDTH 768 0
DWIDTH 8 0
BBX 6 12 1 -4
BITMAP
70
8c
ec
cc
cc
ec
dc
6c
0c
0c
0c
0c
ENDCHAR
STARTCHAR Aring
ENCODING 197
SWIDTH 768 0
DWIDTH 8 0
BBX 6 8 1 0
BITMAP
70
8c
7c
cc
cc
ec
9c
6c
ENDCHAR
STARTCHAR AE
ENCODING 198
SWIDTH 864 0
DWIDTH 9 0
BBX 7 12 1 -4
BITMAP
38
46
76
66
66
e6
a6
46
06
06
06
06
ENDCHAR
STARTCHAR Ccedilla
ENCODING 199
SWIDTH 672 0
DWIDTH 7 0
BBX 5 8 1 0
BITMAP
70
98
18
18
18
38
28
10
ENDCHAR
STARTCHAR Egrave
ENCODING 200
SWIDTH 768 0
DWIDTH 8 0
BBX 6 8 1 0
BITMAP
74
8c
ec
9c
6c
cc
cc
cc
ENDCHAR
STARTCHAR Eacute
ENCODING 201
SWIDTH 864 0
DWIDTH 9 0
BBX 7 8 1 0
BITMAP
42
a6
66
76
66
7e
66
7c
ENDCHAR
STARTCHAR Ecircumflex
ENCODING 202
SWIDTH 768 0
DWIDTH 8 0
BBX 7 8 1 0
BITMAP
72
8e
7c
cc
cc
ec
dc
6c
ENDCHAR
STARTCHAR Ediaeresis
ENCODING 203
SWIDTH 864 0
DWIDTH 9 0
BBX 7 8 1 0
BITMAP
44
aa
6c
76
66
66
66
66
ENDCHAR
STARTCHAR Igrave
ENCODING 204
SWIDTH 1056 0
DWIDTH 11 0
BBX 9 8 1 0
BITMAP
4680
ab80
ef00
6b00
7700
7300
6300
6300
ENDCHAR
STARTCHAR Iacute
ENCODING 205
SWIDTH 768 0
DWIDTH 8 0
BBX 6 8 1 0
BITMAP
70
98
4c
ac
cc
cc
cc
70
ENDCHAR
STARTCHAR Icircumflex
ENCODING 206
SWIDTH 672 0
DWIDTH 7 0
BBX 5 8 1 0
BITMAP
68
d0
78
58
b8
d8
d8
70
ENDCHAR
STARTCHAR Idiaeresis
ENCODING 207
SWIDTH 864 0
DWIDTH 9 0
BBX 6 8 2 0
BITMAP
1c
1c
dc
ac
4c
0c
0c
0c
ENDCHAR
STARTCHAR ETH
ENCODING 208
SWIDTH 672 0
DWIDTH 7 0
BBX 5 8 1 0
BITMAP
48
a8
b0
70
00
48
a8
70
ENDCHAR
STARTCHAR Ntilde
ENCODING 209
SWIDTH 0 0
DWIDTH 0 0
BBX 6 4 -5 9
BITMAP
44
a4
ec
38
ENDCHAR
STARTCHAR Ograve
ENCODING 210
SWIDTH 576 0
DWIDTH 6 0
BBX 4 8 1 0
BITMAP
e0
30
30
30
30
30
30
30
ENDCHAR
STARTCHAR Oacute
ENCODING 211
SWIDTH 576 0
DWIDTH 6 0
BBX 10 12 -5 0
BITMAP
6000
9000
6000
0000
0300
00c0
00c0
00c0
00c0
00c0
00c0
00c0
ENDCHAR
STARTCHAR Ocircumflex
ENCODING 212
SWIDTH 0 0
DWIDTH 0 0
BBX 6 4 -7 9
BITMAP
78
8c
f4
0c
ENDCHAR
STARTCHAR Otilde
ENCODING 213
SWIDTH 0 0
DWIDTH 0 0
BBX 6 4 -7 9
BITMAP
34
cc
fc
04
ENDCHAR
STARTCHAR Odiaeresis
ENCODING 214
SWIDTH 0 0
DWIDTH 0 0
BBX 7 4 -7 9
BITMAP
7e
88
f4
0c
ENDCHAR
STARTCHAR multiply
ENCODING 215
SWIDTH 0 0
DWIDTH 0 0
BBX 6 5 -6 9
BITMAP
28
78
88
f8
0c
ENDCHAR
STARTCHAR Ooblique
ENCODING 216
SWIDTH 0 0
DWIDTH 0 0
BBX 3 4 -4 -4
BITMAP
40
a0
60
60
ENDCHAR
STARTCHAR Ugrave
ENCODING 217
SWIDTH 0 0
DWIDTH 0 0
BBX 5 4 -6 -4
BITMAP
58
b8
78
38
ENDCHAR
STARTCHAR Uacute
ENCODING 218
SWIDTH 0 0
DWIDTH 0 0
BBX 2 2 -3 -3
BITMAP
c0
c0
ENDCHAR
STARTCHAR Ucircumflex
ENCODING 219
SWIDTH 384 0
DWIDTH 4 0
BBX 0 0 0 0
BITMAP
ENDCHAR
STARTCHAR Udiaeresis
ENCODING 220
SWIDTH 384 0
DWIDTH 4 0
BBX 4 2 0 -2
BITMAP
f0
90
ENDCHAR
STARTCHAR ssharp
ENCODING 223
SWIDTH 864 0
DWIDTH 9 0
BBX 8 10 0 0
BITMAP
08
fc
6b
6b
7c
6b
6b
6b
6a
fc
ENDCHAR
STARTCHAR agrave
ENCODING 224
SWIDTH 288 0
DWIDTH 3 0
BBX 3 8 1 0
BITMAP
40
c0
c0
c0
c0
c0
a0
40
ENDCHAR
STARTCHAR aacute
ENCODING 225
SWIDTH 672 0
DWIDTH 7 0
BBX 6 8 1 0
BITMAP
48
d8
d8
d8
d8
d8
b4
48
ENDCHAR
STARTCHAR acircumflex
ENCODING 226
SWIDTH 480 0
DWIDTH 5 0
BBX 5 14 0 0
BITMAP
68
90
c0
30
30
30
30
30
30
30
30
38
30
10
ENDCHAR
STARTCHAR atilde
ENCODING 227
SWIDTH 480 0
DWIDTH 5 0
BBX 5 13 -1 0
BITMAP
60
b0
b0
70
30
30
30
30
30
30
30
28
10
ENDCHAR
STARTCHAR adiaeresis
ENCODING 228
SWIDTH 576 0
DWIDTH 6 0
BBX 6 14 -1 0
BITMAP
88
5c
5c
5c
7c
2c
0c
0c
0c
0c
0c
1c
14
08
ENDCHAR
STARTCHAR aring
ENCODING 229
SWIDTH 576 0
DWIDTH 6 0
BBX 4 12 1 -4
BITMAP
e0
30
30
30
30
30
30
30
30
30
30
30
ENDCHAR
STARTCHAR ae
ENCODING 230
SWIDTH 672 0
DWIDTH 7 0
BBX 5 12 1 -4
BITMAP
50
b8
98
b8
78
18
18
18
18
18
18
18
ENDCHAR
STARTCHAR ccedilla
ENCODING 231
SWIDTH 0 0
DWIDTH 0 0
BBX 5 4 -5 9
BITMAP
18
f0
d8
f8
ENDCHAR
STARTCHAR egrave
ENCODING 232
SWIDTH 0 0
DWIDTH 0 0
BBX 1 3 -3 15
BITMAP
80
80
80
ENDCHAR
STARTCHAR eacute
ENCODING 233
SWIDTH 0 0
DWIDTH 0 0
BBX 4 4 -4 14
BITMAP
50
b0
50
60
ENDCHAR
STARTCHAR ecircumflex
ENCODING 234
SWIDTH 0 0
DWIDTH 0 0
BBX 6 4 -5 16
BITMAP
04
74
a8
70
ENDCHAR
STARTCHAR ediaeresis
ENCODING 235
SWIDTH 0 0
DWIDTH 0 0
BBX 3 3 -4 16
BITMAP
40
e0
40
ENDCHAR
STARTCHAR igrave
ENCODING 236
SWIDTH 0 0
DWIDTH 0 0
BBX 3 4 -3 14
BITMAP
20
60
c0
c0
ENDCHAR
STARTCHAR iacute
ENCODING 237
SWIDTH 0 0
DWIDTH 0 0
BBX 3 3 -4 9
BITMAP
40
a0
40
ENDCHAR
STARTCHAR icircumflex
ENCODING 238
SWIDTH 0 0
DWIDTH 0 0
BBX 3 5 -3 9
BITMAP
20
40
e0
80
c0
ENDCHAR
STARTCHAR idiaeresis
ENCODING 239
SWIDTH 672 0
DWIDTH 7 0
BBX 6 7 1 0
BITMAP
30
48
bc
bc
b4
48
30
ENDCHAR
STARTCHAR eth
ENCODING 240
SWIDTH 768 0
DWIDTH 8 0
BBX 6 6 1 0
BITMAP
38
48
84
84
48
30
ENDCHAR
STARTCHAR ntilde
ENCODING 241
SWIDTH 672 0
DWIDTH 7 0
BBX 5 6 1 0
BITMAP
70
48
b8
b8
d8
28
ENDCHAR
STARTCHAR ograve
ENCODING 242
SWIDTH 1056 0
DWIDTH 11 0
BBX 9 9 1 0
BITMAP
8000
8000
8000
9300
9f80
a480
b480
9580
7e00
ENDCHAR
STARTCHAR oacute
ENCODING 243
SWIDTH 960 0
DWIDTH 10 0
BBX 8 6 1 0
BITMAP
66
5b
89
e9
e9
72
ENDCHAR
STARTCHAR ocircumflex
ENCODING 244
SWIDTH 960 0
DWIDTH 10 0
BBX 8 9 1 0
BITMAP
01
01
0e
30
4e
d6
d8
4e
31
ENDCHAR
STARTCHAR otilde
ENCODING 245
SWIDTH 960 0
DWIDTH 10 0
BBX 8 9 1 0
BITMAP
01
09
1b
1c
6e
8e
88
cc
32
ENDCHAR
STARTCHAR odiaeresis
ENCODING 246
SWIDTH 672 0
DWIDTH 7 0
BBX 6 9 0 0
BITMAP
80
40
40
70
4c
44
64
48
38
ENDCHAR
STARTCHAR division
ENCODING 247
SWIDTH 960 0
DWIDTH 10 0
BBX 8 9 1 0
BITMAP
06
02
01
6d
ff
97
83
b3
76
ENDCHAR
STARTCHAR oslash
ENCODING 248
SWIDTH 960 0
DWIDTH 10 0
BBX 8 9 1 0
BITMAP
01
01
01
72
fe
80
e6
da
4e
ENDCHAR
STARTCHAR ugrave
ENCODING 249
SWIDTH 768 0
DWIDTH 8 0
BBX 6 9 1 0
BITMAP
04
6c
d8
80
78
80
98
88
70
ENDCHAR
STARTCHAR uacute
ENCODING 250
SWIDTH 960 0
DWIDTH 10 0
BBX 9 8 0 0
BITMAP
0e80
0a80
da80
9280
6280
0280
0280
0280
ENDCHAR
STARTCHAR ucircumflex
ENCODING 251
SWIDTH 1536 0
DWIDTH 16 0
BBX 15 7 1 0
BITMAP
3800
4400
8000
82a2
8374
cd48
3000
ENDCHAR
STARTCHAR udiaeresis
ENCODING 252
SWIDTH 0 0
DWIDTH 0 0
BBX 3 4 -4 -9
BITMAP
c0
60
60
60
ENDCHAR
STARTCHAR yacute
ENCODING 253
SWIDTH 0 0
DWIDTH 0 0
BBX 4 4 -5 -8
BITMAP
70
f0
f0
70
ENDCHAR
STARTCHAR thorn
ENCODING 254
SWIDTH 0 0
DWIDTH 0 0
BBX 2 2 -3 -7
BITMAP
c0
c0
ENDCHAR
STARTCHAR C000400
ENCODING 256
SWIDTH 288 0
DWIDTH 3 0
BBX 0 0 0 0
BITMAP
ENDCHAR
STARTCHAR C000401
ENCODING 257
SWIDTH 288 0
DWIDTH 3 0
BBX 0 0 0 0
BITMAP
ENDCHAR
STARTCHAR C000430
ENCODING 280
SWIDTH 288 0
DWIDTH 3 0
BBX 0 0 0 0
BITMAP
ENDCHAR
STARTCHAR C001103
ENCODING 579
SWIDTH 576 0
DWIDTH 6 0
BBX 6 1 0 3
BITMAP
fc
ENDCHAR
STARTCHAR C001104
ENCODING 580
SWIDTH 1248 0
DWIDTH 13 0
BBX 13 1 0 3
BITMAP
fff8
ENDCHAR
STARTCHAR C001107
ENCODING 583
SWIDTH 384 0
DWIDTH 4 0
BBX 2 4 1 5
BITMAP
40
80
c0
c0
ENDCHAR
STARTCHAR C001110
ENCODING 584
SWIDTH 384 0
DWIDTH 4 0
BBX 2 4 1 5
BITMAP
c0
c0
40
80
ENDCHAR
STARTCHAR C001113
ENCODING 587
SWIDTH 576 0
DWIDTH 6 0
BBX 5 4 1 5
BITMAP
58
90
d8
d8
ENDCHAR
STARTCHAR C001114
ENCODING 588
SWIDTH 576 0
DWIDTH 6 0
BBX 5 4 1 5
BITMAP
d8
d8
48
90
ENDCHAR
STARTCHAR C001115
ENCODING 589
SWIDTH 576 0
DWIDTH 6 0
BBX 5 4 1 -2
BITMAP
d8
d8
48
90
ENDCHAR
STARTCHAR C001121
ENCODING 593
SWIDTH 480 0
DWIDTH 5 0
BBX 4 4 0 2
BITMAP
60
f0
f0
60
ENDCHAR
STARTCHAR C001122
ENCODING 594
SWIDTH 1248 0
DWIDTH 13 0
BBX 11 2 1 0
BITMAP
c660
c660
ENDCHAR
ENDFONT
